<svg width="19" height="18" viewBox="0 0 19 18" fill="none" xmlns="http://www.w3.org/2000/svg">
<path fill-rule="evenodd" clip-rule="evenodd" d="M15.7076 2.29237C14.88 1.46475 13.5382 1.46475 12.7105 2.29238L11.212 3.79092L14.2091 6.78802L15.7076 5.28947C16.5353 4.46185 16.5353 3.12 15.7076 2.29237ZM13.027 7.97005L10.0299 4.97296L3.01784 11.9851C2.60916 12.3937 2.53631 12.4794 2.4904 12.5679L2.48855 12.5715C2.44301 12.6604 2.41579 12.7686 2.32055 13.34L1.85267 16.1473L4.65997 15.6795C5.23067 15.5843 5.33934 15.5571 5.4282 15.5116L5.43151 15.5099C5.52025 15.464 5.60532 15.3918 6.01494 14.9822L13.027 7.97005ZM11.5285 1.11034C13.0089 -0.37011 15.4092 -0.370114 16.8897 1.11034C18.3701 2.59078 18.3701 4.99106 16.8897 6.47151L7.19698 16.1642C7.1758 16.1854 7.15482 16.2064 7.13399 16.2273C6.82348 16.5385 6.54842 16.8143 6.1994 16.9948L6.19048 16.9994C5.84075 17.1785 5.45651 17.242 5.02276 17.3138C4.99366 17.3186 4.96434 17.3234 4.93479 17.3284L0.973247 17.9886C0.706989 18.033 0.435689 17.9461 0.244819 17.7552C0.0539484 17.5643 -0.0329936 17.293 0.0113828 17.0268L0.671639 13.0652C0.676564 13.0357 0.681415 13.0063 0.686229 12.9772C0.757983 12.5435 0.821547 12.1593 1.00064 11.8095L1.0014 11.808L1.00446 11.8021L1.00523 11.8006C1.18573 11.4516 1.46145 11.1765 1.77271 10.866C1.79359 10.8452 1.81462 10.8242 1.83581 10.803L11.5285 1.11034ZM8.35829 16.2986H18.3882V17.9703H8.35829V16.2986Z" fill="#25EBAC"/>
</svg>
