<svg width="42" height="42" viewBox="0 0 42 42" fill="none" xmlns="http://www.w3.org/2000/svg">
<path fill-rule="evenodd" clip-rule="evenodd" d="M9.41978 4.65802e-06C9.46153 6.93383e-06 9.50343 9.20964e-06 9.54546 9.20964e-06L32.5802 4.65802e-06C34.2726 -9.0471e-05 35.7308 -0.000172179 36.8985 0.156823C38.1499 0.325075 39.3495 0.704497 40.3225 1.67749C41.2955 2.65048 41.6749 3.85006 41.8432 5.1015C42.0002 6.26922 42.0001 7.72743 42 9.41983L42 42H38.1818V38.1818H3.81819V42H9.20964e-06V9.54546C9.20964e-06 9.50343 6.93383e-06 9.46153 4.65802e-06 9.41978C-9.0471e-05 7.7274 -0.000172179 6.26921 0.156823 5.1015C0.325075 3.85006 0.704497 2.65048 1.67749 1.67749C2.65048 0.704497 3.85006 0.325075 5.1015 0.156823C6.26921 -0.000172179 7.7274 -9.0471e-05 9.41978 4.65802e-06ZM3.81819 34.3636H38.1818V21H3.81819V34.3636ZM3.81819 17.1818H38.1818V9.54546C38.1818 7.69158 38.1778 6.49323 38.059 5.61026C37.9477 4.78221 37.768 4.52268 37.6227 4.37735C37.4773 4.23202 37.2178 4.05228 36.3897 3.94096C35.5068 3.82224 34.3084 3.81819 32.4545 3.81819H9.54546C7.69158 3.81819 6.49323 3.82224 5.61026 3.94096C4.78221 4.05228 4.52268 4.23202 4.37735 4.37735C4.23202 4.52268 4.05228 4.78221 3.94096 5.61026C3.82224 6.49323 3.81819 7.69158 3.81819 9.54546V17.1818ZM22.9091 5.72728V15.2727H19.0909V5.72728H22.9091ZM28.6364 5.72728V15.2727H24.8182V5.72728H28.6364ZM34.3636 5.72728V15.2727H30.5455V5.72728H34.3636ZM11.4545 22.9091V32.4545H7.63637V22.9091H11.4545ZM17.1818 22.9091V32.4545H13.3636V22.9091H17.1818Z" fill="url(#paint0_linear_0_3)"/>
<defs>
<linearGradient id="paint0_linear_0_3" x1="42" y1="21" x2="0" y2="21" gradientUnits="userSpaceOnUse">
<stop stop-color="#404040"/>
<stop offset="1" stop-color="#C4C4C4"/>
</linearGradient>
</defs>
</svg>
