<svg width="42" height="36" viewBox="0 0 42 36" fill="none" xmlns="http://www.w3.org/2000/svg">
<path fill-rule="evenodd" clip-rule="evenodd" d="M18.9474 5.79263C14.5566 6.29591 10.8151 8.48288 7.90589 10.9105L4.18189 7.18653L1.50232 9.8661L5.14419 13.508C3.68909 15.0381 2.53319 16.5227 1.71477 17.6684C1.24774 18.3223 0.887534 18.8701 0.641397 19.2592C0.518257 19.4538 0.423455 19.6091 0.357904 19.7183L0.197081 20.0007C-0.0656938 20.5306 -0.0656938 21.1536 0.197081 21.6836L0.357904 21.9659C0.423455 22.0751 0.518257 22.2304 0.641397 22.425C0.887534 22.8141 1.24774 23.3619 1.71477 24.0158C2.64646 25.3201 4.01554 27.0635 5.76548 28.8135C9.21728 32.2653 14.4128 36 20.8421 36C27.2714 36 32.4669 32.2653 35.9187 28.8135C37.6687 27.0635 39.0377 25.3201 39.9694 24.0158C40.4365 23.3619 40.7967 22.8141 41.0428 22.425C41.166 22.2304 41.2608 22.0751 41.3263 21.9659L41.4812 21.6953C41.7519 21.1589 41.7519 20.5253 41.4812 19.9889L41.3263 19.7183C41.2608 19.6091 41.166 19.4538 41.0428 19.2592C40.7967 18.8701 40.4365 18.3223 39.9694 17.6684C39.151 16.5227 37.9951 15.0381 36.54 13.508L40.1819 9.8661L37.5023 7.18653L33.7783 10.9105C30.8691 8.48288 27.1276 6.29591 22.7368 5.79263V0H18.9474V5.79263ZM37.5537 20.8421C37.3712 20.5658 37.148 20.238 36.8858 19.871C36.0412 18.6886 34.805 17.1162 33.2392 15.5503C30.0594 12.3705 25.7812 9.47368 20.8421 9.47368C15.903 9.47368 11.6248 12.3705 8.44504 15.5503C6.8792 17.1162 5.64301 18.6886 4.79839 19.871C4.53624 20.238 4.313 20.5658 4.13049 20.8421C4.313 21.1184 4.53624 21.4462 4.79839 21.8132C5.64301 22.9956 6.8792 24.5681 8.44504 26.1339C11.6248 29.3137 15.903 32.2105 20.8421 32.2105C25.7812 32.2105 30.0594 29.3137 33.2392 26.1339C34.805 24.5681 36.0412 22.9956 36.8858 21.8132C37.148 21.4462 37.3712 21.1184 37.5537 20.8421Z" fill="url(#paint0_linear_0_4)"/>
<path fill-rule="evenodd" clip-rule="evenodd" d="M20.8421 13.2632C16.6564 13.2632 13.2632 16.6564 13.2632 20.8421C13.2632 25.0278 16.6564 28.4211 20.8421 28.4211C25.0278 28.4211 28.4211 25.0278 28.4211 20.8421C28.4211 16.6564 25.0278 13.2632 20.8421 13.2632ZM20.8421 17.0526C18.7492 17.0526 17.0526 18.7492 17.0526 20.8421C17.0526 22.935 18.7492 24.6316 20.8421 24.6316C22.935 24.6316 24.6316 22.935 24.6316 20.8421C24.6316 18.7492 22.935 17.0526 20.8421 17.0526Z" fill="url(#paint1_linear_0_4)"/>
<defs>
<linearGradient id="paint0_linear_0_4" x1="41.6842" y1="18" x2="0" y2="18" gradientUnits="userSpaceOnUse">
<stop stop-color="#404040"/>
<stop offset="1" stop-color="#C4C4C4"/>
</linearGradient>
<linearGradient id="paint1_linear_0_4" x1="41.6842" y1="18" x2="0" y2="18" gradientUnits="userSpaceOnUse">
<stop stop-color="#404040"/>
<stop offset="1" stop-color="#C4C4C4"/>
</linearGradient>
</defs>
</svg>
