<svg width="16" height="16" viewBox="0 0 16 16" fill="none" xmlns="http://www.w3.org/2000/svg">
<path d="M14.8679 7.76286L12.6318 7.01906C11.8105 6.74476 11.1981 6.06606 11.0272 5.23388L10.0825 0.66865C10.0588 0.55243 9.95431 0.46875 9.83091 0.46875C9.70751 0.46875 9.60301 0.55243 9.57931 0.66865L8.63461 5.23388C8.46371 6.06606 7.85121 6.74476 7.02996 7.01906L4.79395 7.76286C4.68951 7.79546 4.62305 7.89306 4.62305 7.99996C4.62305 8.10686 4.69426 8.19986 4.79395 8.23706L7.02996 8.98086C7.85121 9.25516 8.46371 9.93396 8.63461 10.7661L9.57931 15.3314C9.60301 15.4476 9.70751 15.5313 9.83091 15.5313C9.95431 15.5313 10.0588 15.4476 10.0825 15.3314L11.0272 10.7661C11.1981 9.93396 11.8105 9.25516 12.6318 8.98086L14.8679 8.23706C14.9723 8.20456 15.0388 8.10686 15.0388 7.99996C15.0388 7.89306 14.9675 7.80006 14.8679 7.76286Z" fill="#D373FF"/>
<path d="M3.00508 3.5744L3.79314 3.83474C4.08273 3.93237 4.30111 4.16946 4.35808 4.46699L4.69039 6.08016C4.69989 6.12196 4.73786 6.14986 4.78059 6.14986C4.82332 6.14986 4.8613 6.12196 4.87079 6.08016L5.20311 4.46699C5.26482 4.17411 5.47845 3.93237 5.77279 3.83474L6.56085 3.5744C6.59883 3.56045 6.62257 3.52791 6.62257 3.49072C6.62257 3.45353 6.59883 3.42098 6.56085 3.40704L5.77279 3.1467C5.4832 3.04907 5.26482 2.81198 5.20311 2.51445L4.87079 0.901283C4.8613 0.859443 4.82332 0.831543 4.78059 0.831543C4.73786 0.831543 4.69989 0.859443 4.69039 0.901283L4.35808 2.51445C4.29636 2.80733 4.08273 3.04907 3.79314 3.1467L3.00508 3.40704C2.9671 3.42098 2.94336 3.45353 2.94336 3.49072C2.94336 3.52791 2.9671 3.56045 3.00508 3.5744Z" fill="#D373FF"/>
<path d="M4.84706 11.5994L3.7884 11.2508C3.39911 11.1206 3.10952 10.7998 3.02882 10.4047L2.58257 8.2429C2.57307 8.1871 2.52085 8.1499 2.46388 8.1499C2.40691 8.1499 2.35469 8.1871 2.3452 8.2429L1.89894 10.4047C1.81824 10.7998 1.52865 11.1206 1.13937 11.2508L0.0807002 11.5994C0.0332302 11.6134 0 11.6599 0 11.711C0 11.7622 0.0332302 11.8086 0.0807002 11.8226L1.13937 12.1713C1.52865 12.3014 1.81824 12.6222 1.89894 13.0174L2.3452 15.1791C2.35469 15.2349 2.40691 15.2721 2.46388 15.2721C2.52085 15.2721 2.56832 15.2302 2.58257 15.1791L3.02882 13.0174C3.10952 12.6222 3.39911 12.3014 3.7884 12.1713L4.84706 11.8226C4.89453 11.8086 4.92776 11.7622 4.92776 11.711C4.92776 11.6599 4.89453 11.6134 4.84706 11.5994Z" fill="#D373FF"/>
</svg>
