<svg width="163" height="32" viewBox="0 0 163 32" fill="none" xmlns="http://www.w3.org/2000/svg">
<g filter="url(#filter0_d_219_29240)">
<path d="M8.51172 5.17383L14.1807 22.3418H14.415L20.084 5.17383H24.4199L16.7295 27H11.8662L4.16113 5.17383H8.51172ZM26.0166 27V10.623H29.8691V27H26.0166ZM27.9502 8.32324C27.335 8.32324 26.8076 8.11816 26.3682 7.70801C25.9287 7.29785 25.709 6.80469 25.709 6.22852C25.709 5.64258 25.9287 5.14453 26.3682 4.73438C26.8076 4.32422 27.335 4.11914 27.9502 4.11914C28.5557 4.11914 29.0781 4.32422 29.5176 4.73438C29.957 5.14453 30.1768 5.6377 30.1768 6.21387C30.1768 6.7998 29.957 7.29785 29.5176 7.70801C29.0781 8.11816 28.5557 8.32324 27.9502 8.32324ZM36.5781 17.4199V27H32.7256V10.623H36.5049V13.4209H36.6953C37.0664 12.5029 37.6475 11.7754 38.4385 11.2383C39.2393 10.6914 40.2549 10.418 41.4854 10.418C42.6182 10.418 43.6045 10.6572 44.4443 11.1357C45.2842 11.6143 45.9336 12.3174 46.3926 13.2451C46.8613 14.1631 47.0957 15.2764 47.0957 16.585V27H43.2432V17.1855C43.2432 16.0918 42.96 15.2373 42.3936 14.6221C41.8271 13.9971 41.0459 13.6846 40.0498 13.6846C39.376 13.6846 38.7754 13.8311 38.248 14.124C37.7305 14.417 37.3203 14.8418 37.0176 15.3984C36.7246 15.9453 36.5781 16.6191 36.5781 17.4199ZM54.6689 27.3369C53.624 27.3369 52.6865 27.1514 51.8564 26.7803C51.0264 26.3994 50.3721 25.8428 49.8936 25.1104C49.415 24.3779 49.1758 23.4746 49.1758 22.4004C49.1758 21.4824 49.3467 20.7207 49.6885 20.1152C50.0303 19.5098 50.4941 19.0264 51.0801 18.665C51.6758 18.3037 52.3447 18.0303 53.0869 17.8447C53.8291 17.6494 54.5957 17.5127 55.3867 17.4346C56.3535 17.3271 57.1348 17.2344 57.7305 17.1562C58.3262 17.0781 58.7559 16.9512 59.0195 16.7754C59.293 16.5996 59.4297 16.3262 59.4297 15.9551V15.8818C59.4297 15.0908 59.1953 14.4756 58.7266 14.0361C58.2578 13.5967 57.5742 13.377 56.6758 13.377C55.7285 13.377 54.9766 13.582 54.4199 13.9922C53.873 14.4023 53.502 14.8857 53.3066 15.4424L49.7178 14.9297C50.001 13.9336 50.4697 13.1035 51.124 12.4395C51.7783 11.7656 52.5742 11.2627 53.5117 10.9307C54.459 10.5889 55.5039 10.418 56.6465 10.418C57.4277 10.418 58.209 10.5107 58.9902 10.6963C59.7715 10.8721 60.4893 11.1748 61.1436 11.6045C61.7979 12.0342 62.3203 12.6104 62.7109 13.333C63.1016 14.0557 63.2969 14.959 63.2969 16.043V27H59.5908V24.7441H59.4736C59.2393 25.1934 58.9072 25.6182 58.4775 26.0186C58.0576 26.4092 57.5303 26.7266 56.8955 26.9707C56.2705 27.2148 55.5283 27.3369 54.6689 27.3369ZM55.6504 24.4951C56.4316 24.4951 57.1055 24.3438 57.6719 24.041C58.2383 23.7285 58.6777 23.3184 58.9902 22.8105C59.3027 22.293 59.459 21.7314 59.459 21.126V19.207C59.332 19.3047 59.127 19.3975 58.8438 19.4854C58.5605 19.5635 58.2383 19.6367 57.877 19.7051C57.5156 19.7734 57.1592 19.832 56.8076 19.8809C56.4658 19.9297 56.168 19.9688 55.9141 19.998C55.3379 20.0762 54.8203 20.208 54.3613 20.3936C53.9121 20.5693 53.5557 20.8135 53.292 21.126C53.0283 21.4385 52.8965 21.8438 52.8965 22.3418C52.8965 23.0547 53.1553 23.5918 53.6729 23.9531C54.1904 24.3145 54.8496 24.4951 55.6504 24.4951ZM72.6426 27V5.17383H76.5977V14.417H86.7051V5.17383H90.6602V27H86.7051V17.7422H76.5977V27H72.6426ZM100.914 27.3223C99.2734 27.3223 97.8574 26.9805 96.666 26.2969C95.4746 25.6035 94.5566 24.627 93.9121 23.3672C93.2773 22.1074 92.96 20.623 92.96 18.9141C92.96 17.2246 93.2773 15.7451 93.9121 14.4756C94.5469 13.1963 95.4404 12.2002 96.5928 11.4873C97.7451 10.7744 99.1025 10.418 100.665 10.418C101.671 10.418 102.623 10.5791 103.521 10.9014C104.43 11.2236 105.23 11.7217 105.924 12.3955C106.627 13.0693 107.179 13.9287 107.579 14.9736C107.979 16.0088 108.18 17.2441 108.18 18.6797V19.8809H94.7617V17.2881H106.261L104.459 18.0498C104.459 17.1221 104.317 16.3164 104.034 15.6328C103.751 14.9395 103.331 14.3975 102.774 14.0068C102.218 13.6162 101.524 13.4209 100.694 13.4209C99.8643 13.4209 99.1562 13.6162 98.5703 14.0068C97.9844 14.3975 97.54 14.9248 97.2373 15.5889C96.9346 16.2432 96.7832 16.9756 96.7832 17.7861V19.5879C96.7832 20.584 96.9541 21.4385 97.2959 22.1514C97.6475 22.8545 98.1357 23.3916 98.7607 23.7627C99.3955 24.1338 100.133 24.3193 100.973 24.3193C101.52 24.3193 102.018 24.2412 102.467 24.085C102.926 23.9287 103.316 23.6943 103.639 23.3818C103.971 23.0596 104.225 22.6641 104.4 22.1953L108.004 22.6201C107.77 23.5674 107.335 24.3975 106.7 25.1104C106.075 25.8135 105.27 26.3604 104.283 26.751C103.307 27.1318 102.184 27.3223 100.914 27.3223ZM114.127 17.4199V27H110.274V10.623H114.054V13.4209H114.244C114.615 12.5029 115.196 11.7754 115.987 11.2383C116.788 10.6914 117.804 10.418 119.034 10.418C120.167 10.418 121.153 10.6572 121.993 11.1357C122.833 11.6143 123.482 12.3174 123.941 13.2451C124.41 14.1631 124.645 15.2764 124.645 16.585V27H120.792V17.1855C120.792 16.0918 120.509 15.2373 119.942 14.6221C119.376 13.9971 118.595 13.6846 117.599 13.6846C116.925 13.6846 116.324 13.8311 115.797 14.124C115.279 14.417 114.869 14.8418 114.566 15.3984C114.273 15.9453 114.127 16.6191 114.127 17.4199ZM135.66 10.623V13.6113H126.271V10.623H135.66ZM128.57 6.72656H132.423V22.0781C132.423 22.7227 132.564 23.2012 132.848 23.5137C133.131 23.8164 133.58 23.9678 134.195 23.9678C134.361 23.9678 134.547 23.9531 134.752 23.9238C134.957 23.8945 135.143 23.8604 135.309 23.8213L135.968 26.8389C135.558 26.9658 135.143 27.0586 134.723 27.1172C134.303 27.1855 133.883 27.2197 133.463 27.2197C131.939 27.2197 130.743 26.8193 129.874 26.0186C129.005 25.208 128.57 24.1045 128.57 22.708V6.72656ZM142.501 27.3369C141.456 27.3369 140.519 27.1514 139.688 26.7803C138.858 26.3994 138.204 25.8428 137.726 25.1104C137.247 24.3779 137.008 23.4746 137.008 22.4004C137.008 21.4824 137.179 20.7207 137.521 20.1152C137.862 19.5098 138.326 19.0264 138.912 18.665C139.508 18.3037 140.177 18.0303 140.919 17.8447C141.661 17.6494 142.428 17.5127 143.219 17.4346C144.186 17.3271 144.967 17.2344 145.562 17.1562C146.158 17.0781 146.588 16.9512 146.852 16.7754C147.125 16.5996 147.262 16.3262 147.262 15.9551V15.8818C147.262 15.0908 147.027 14.4756 146.559 14.0361C146.09 13.5967 145.406 13.377 144.508 13.377C143.561 13.377 142.809 13.582 142.252 13.9922C141.705 14.4023 141.334 14.8857 141.139 15.4424L137.55 14.9297C137.833 13.9336 138.302 13.1035 138.956 12.4395C139.61 11.7656 140.406 11.2627 141.344 10.9307C142.291 10.5889 143.336 10.418 144.479 10.418C145.26 10.418 146.041 10.5107 146.822 10.6963C147.604 10.8721 148.321 11.1748 148.976 11.6045C149.63 12.0342 150.152 12.6104 150.543 13.333C150.934 14.0557 151.129 14.959 151.129 16.043V27H147.423V24.7441H147.306C147.071 25.1934 146.739 25.6182 146.31 26.0186C145.89 26.4092 145.362 26.7266 144.728 26.9707C144.103 27.2148 143.36 27.3369 142.501 27.3369ZM143.482 24.4951C144.264 24.4951 144.938 24.3438 145.504 24.041C146.07 23.7285 146.51 23.3184 146.822 22.8105C147.135 22.293 147.291 21.7314 147.291 21.126V19.207C147.164 19.3047 146.959 19.3975 146.676 19.4854C146.393 19.5635 146.07 19.6367 145.709 19.7051C145.348 19.7734 144.991 19.832 144.64 19.8809C144.298 19.9297 144 19.9688 143.746 19.998C143.17 20.0762 142.652 20.208 142.193 20.3936C141.744 20.5693 141.388 20.8135 141.124 21.126C140.86 21.4385 140.729 21.8438 140.729 22.3418C140.729 23.0547 140.987 23.5918 141.505 23.9531C142.022 24.3145 142.682 24.4951 143.482 24.4951ZM153.985 27V10.623H157.838V27H153.985ZM155.919 8.32324C155.304 8.32324 154.776 8.11816 154.337 7.70801C153.897 7.29785 153.678 6.80469 153.678 6.22852C153.678 5.64258 153.897 5.14453 154.337 4.73438C154.776 4.32422 155.304 4.11914 155.919 4.11914C156.524 4.11914 157.047 4.32422 157.486 4.73438C157.926 5.14453 158.146 5.6377 158.146 6.21387C158.146 6.7998 157.926 7.29785 157.486 7.70801C157.047 8.11816 156.524 8.32324 155.919 8.32324Z" fill="url(#paint0_linear_219_29240)"/>
</g>
<defs>
<filter id="filter0_d_219_29240" x="0.161133" y="0.119141" width="161.984" height="31.2178" filterUnits="userSpaceOnUse" color-interpolation-filters="sRGB">
<feFlood flood-opacity="0" result="BackgroundImageFix"/>
<feColorMatrix in="SourceAlpha" type="matrix" values="0 0 0 0 0 0 0 0 0 0 0 0 0 0 0 0 0 0 127 0" result="hardAlpha"/>
<feOffset/>
<feGaussianBlur stdDeviation="2"/>
<feComposite in2="hardAlpha" operator="out"/>
<feColorMatrix type="matrix" values="0 0 0 0 0.713782 0 0 0 0 0.0961538 0 0 0 0 1 0 0 0 0.59 0"/>
<feBlend mode="normal" in2="BackgroundImageFix" result="effect1_dropShadow_219_29240"/>
<feBlend mode="normal" in="SourceGraphic" in2="effect1_dropShadow_219_29240" result="shape"/>
</filter>
<linearGradient id="paint0_linear_219_29240" x1="82" y1="-2" x2="82" y2="34" gradientUnits="userSpaceOnUse">
<stop stop-color="#DC8FFF"/>
<stop offset="1" stop-color="#8E40B2"/>
</linearGradient>
</defs>
</svg>
