<svg width="11" height="16" viewBox="0 0 11 16" fill="none" xmlns="http://www.w3.org/2000/svg">
<path d="M10.2449 7.76286L8.00876 7.01906C7.18746 6.74476 6.57506 6.06606 6.40416 5.23388L5.45946 0.66865C5.43576 0.55243 5.33126 0.46875 5.20786 0.46875C5.08446 0.46875 4.97996 0.55243 4.95626 0.66865L4.01156 5.23388C3.84066 6.06606 3.22816 6.74476 2.40691 7.01906L0.1709 7.76286C0.0664599 7.79546 0 7.89306 0 7.99996C0 8.10686 0.0712099 8.19986 0.1709 8.23706L2.40691 8.98086C3.22816 9.25516 3.84066 9.93396 4.01156 10.7661L4.95626 15.3314C4.97996 15.4476 5.08446 15.5313 5.20786 15.5313C5.33126 15.5313 5.43576 15.4476 5.45946 15.3314L6.40416 10.7661C6.57506 9.93396 7.18746 9.25516 8.00876 8.98086L10.2449 8.23706C10.3493 8.20456 10.4158 8.10686 10.4158 7.99996C10.4158 7.89306 10.3445 7.80006 10.2449 7.76286Z" fill="black"/>
</svg>
