<svg width="54" height="61" viewBox="0 0 54 61" fill="none" xmlns="http://www.w3.org/2000/svg">
<path d="M0.789063 43.8711L0.789063 16.9043C0.789127 16.0237 1.21874 15.3571 1.94531 14.877L25.623 1.45801C26.3527 1.23597 27.3296 1.23627 28.0596 1.45801L51.7422 14.8799C52.4666 15.3599 52.8945 16.0252 52.8945 16.9043V43.8711C52.8944 44.7504 52.4668 45.4165 51.7422 45.8965L27.9775 59.3633L27.9561 59.376L27.9346 59.3896L27.8096 59.4648C27.1729 59.8153 26.3606 59.7902 25.749 59.3896L25.7285 59.376L25.7061 59.3633L1.94531 45.8994C1.21847 45.4192 0.789162 44.7518 0.789063 43.8711Z" fill="url(#paint0_linear_219_25971)" stroke="url(#paint1_linear_219_25971)" stroke-width="1.57895"/>
<path d="M18.8022 42.3955V39.4041L26.7894 31.5711C27.5398 30.8001 28.1669 30.1165 28.6706 29.5203C29.1846 28.9241 29.5701 28.3484 29.827 27.7933C30.084 27.2279 30.2125 26.6266 30.2125 25.9893C30.2125 25.2697 30.0481 24.6478 29.7191 24.1235C29.3902 23.5992 28.9379 23.1983 28.3622 22.9208C27.7968 22.6432 27.1492 22.5045 26.4194 22.5045C25.6587 22.5045 24.9956 22.6587 24.4303 22.9671C23.8649 23.2754 23.4229 23.7123 23.1042 24.2777C22.7958 24.8431 22.6416 25.5164 22.6416 26.2976H18.6942C18.6942 24.8482 19.0232 23.589 19.6811 22.5199C20.3492 21.4405 21.2693 20.6027 22.4411 20.0065C23.613 19.4103 24.9545 19.1122 26.4656 19.1122C28.0178 19.1122 29.3747 19.4 30.5363 19.9757C31.6979 20.5513 32.6025 21.3429 33.2502 22.3503C33.8978 23.3474 34.2216 24.4884 34.2216 25.7734C34.2216 26.6369 34.0571 27.4849 33.7282 28.3176C33.3992 29.14 32.8184 30.06 31.9858 31.0777C31.1634 32.0851 30.0069 33.3032 28.5164 34.7321L24.569 38.7565V38.9261H34.5608V42.3955H18.8022Z" fill="white"/>
<defs>
<linearGradient id="paint0_linear_219_25971" x1="26.8421" y1="0.5" x2="26.8421" y2="60.5" gradientUnits="userSpaceOnUse">
<stop stop-color="#C6D1E5"/>
<stop offset="1" stop-color="#9AA2C3"/>
</linearGradient>
<linearGradient id="paint1_linear_219_25971" x1="26.8421" y1="0.5" x2="26.8421" y2="60.5" gradientUnits="userSpaceOnUse">
<stop stop-color="#5B5B5B"/>
<stop offset="1" stop-color="#CDD5E4"/>
</linearGradient>
</defs>
</svg>
