<svg width="54" height="60" viewBox="0 0 54 60" fill="none" xmlns="http://www.w3.org/2000/svg">
<path d="M0.898438 43.3711L0.898438 16.4043C0.898499 15.5237 1.32812 14.8571 2.05469 14.377L25.7324 0.958008C26.462 0.735974 27.439 0.736271 28.1689 0.958008L51.8516 14.3799C52.5759 14.8599 53.0038 15.5252 53.0039 16.4043V43.3711C53.0038 44.2504 52.5762 44.9165 51.8516 45.3965L28.0869 58.8633L28.0654 58.876L28.0439 58.8896L27.9189 58.9648C27.2823 59.3153 26.47 59.2902 25.8584 58.8896L25.8379 58.876L25.8154 58.8633L2.05469 45.3994C1.32785 44.9192 0.898538 44.2518 0.898438 43.3711Z" fill="url(#paint0_linear_219_25979)" stroke="url(#paint1_linear_219_25979)" stroke-width="1.57895"/>
<path d="M27.1609 42.2029C25.547 42.2029 24.113 41.9305 22.8589 41.3857C21.6048 40.8306 20.6128 40.0596 19.883 39.0728C19.1634 38.0859 18.7882 36.9449 18.7573 35.6497H22.9514C22.9823 36.2767 23.1827 36.8215 23.5528 37.2841C23.9331 37.7364 24.4368 38.0911 25.0639 38.3481C25.6909 38.5948 26.39 38.7181 27.1609 38.7181C27.9833 38.7181 28.708 38.5742 29.3351 38.2864C29.9724 37.9883 30.471 37.5874 30.8307 37.0837C31.1905 36.5697 31.3704 35.9786 31.3704 35.3104C31.3704 34.6114 31.1854 33.9947 30.8153 33.4601C30.4555 32.9256 29.9313 32.5093 29.2425 32.2111C28.5538 31.913 27.7263 31.764 26.76 31.764H24.7092V28.5567H26.76C27.5413 28.5567 28.2351 28.418 28.8416 28.1404C29.4481 27.8629 29.921 27.4774 30.2602 26.984C30.5995 26.4803 30.7691 25.8943 30.7691 25.2262C30.7691 24.5785 30.62 24.0132 30.3219 23.53C30.0341 23.0469 29.6229 22.6717 29.0884 22.4044C28.5538 22.1371 27.9268 22.0035 27.2072 22.0035C26.5082 22.0035 25.8554 22.132 25.2489 22.389C24.6527 22.6357 24.1696 22.9903 23.7995 23.4529C23.4397 23.9155 23.2495 24.4706 23.229 25.1182H19.2354C19.2559 23.8333 19.6208 22.7025 20.3301 21.7259C21.0497 20.7494 22.0108 19.9887 23.2136 19.4439C24.4163 18.8888 25.7629 18.6112 27.2534 18.6112C28.7748 18.6112 30.1009 18.8991 31.2316 19.4747C32.3727 20.0401 33.2516 20.8059 33.8684 21.7722C34.4954 22.7385 34.809 23.8024 34.809 24.964C34.809 26.2593 34.4286 27.3438 33.6679 28.2175C32.9072 29.0913 31.905 29.6669 30.6611 29.9445V30.1141C32.2648 30.3403 33.4932 30.9365 34.3464 31.9028C35.2099 32.869 35.6416 34.0718 35.6416 35.5109C35.6416 36.7958 35.2767 37.9472 34.5468 38.9648C33.817 39.9722 32.8147 40.7638 31.54 41.3394C30.2654 41.9151 28.8057 42.2029 27.1609 42.2029Z" fill="white"/>
<defs>
<linearGradient id="paint0_linear_219_25979" x1="26.9515" y1="0" x2="26.9515" y2="60" gradientUnits="userSpaceOnUse">
<stop stop-color="#E87A57"/>
<stop offset="1" stop-color="#99362E"/>
</linearGradient>
<linearGradient id="paint1_linear_219_25979" x1="26.9515" y1="0" x2="26.9515" y2="60" gradientUnits="userSpaceOnUse">
<stop stop-color="#3D3D3D"/>
<stop offset="1" stop-color="#F3845D"/>
</linearGradient>
</defs>
</svg>
